<mxfile host="Electron" agent="Mozilla/5.0 (Windows NT 10.0; Win64; x64) AppleWebKit/537.36 (KHTML, like Gecko) draw.io/25.0.2 Chrome/128.0.6613.186 Electron/32.2.5 Safari/537.36" version="25.0.2">
  <diagram name="Page-1" id="kPcvRB0Jpk0-cz0uNh_7">
    <mxGraphModel dx="4154" dy="2444" grid="0" gridSize="10" guides="1" tooltips="1" connect="1" arrows="1" fold="1" page="0" pageScale="1" pageWidth="827" pageHeight="1169" math="0" shadow="0">
      <root>
        <mxCell id="0" />
        <mxCell id="1" parent="0" />
        <mxCell id="V_oIrFP5sulKO1TenzHI-9" style="edgeStyle=orthogonalEdgeStyle;rounded=0;orthogonalLoop=1;jettySize=auto;html=1;endArrow=block;endFill=0;" parent="1" source="HCp1jWOT6lPPvcUnvt3E-54" target="HCp1jWOT6lPPvcUnvt3E-30" edge="1">
          <mxGeometry relative="1" as="geometry">
            <mxPoint x="655" y="320" as="sourcePoint" />
            <mxPoint x="589.4300000000001" y="231.76000000000022" as="targetPoint" />
            <Array as="points">
              <mxPoint x="655" y="250" />
            </Array>
          </mxGeometry>
        </mxCell>
        <mxCell id="V_oIrFP5sulKO1TenzHI-10" style="edgeStyle=orthogonalEdgeStyle;rounded=0;orthogonalLoop=1;jettySize=auto;html=1;endArrow=block;endFill=0;" parent="1" source="HCp1jWOT6lPPvcUnvt3E-36" target="HCp1jWOT6lPPvcUnvt3E-30" edge="1">
          <mxGeometry relative="1" as="geometry">
            <mxPoint x="345" y="320" as="sourcePoint" />
            <mxPoint x="399.24" y="233.15999999999985" as="targetPoint" />
            <Array as="points">
              <mxPoint x="345" y="250" />
            </Array>
          </mxGeometry>
        </mxCell>
        <mxCell id="V_oIrFP5sulKO1TenzHI-17" style="edgeStyle=orthogonalEdgeStyle;rounded=0;orthogonalLoop=1;jettySize=auto;html=1;endArrow=block;endFill=0;" parent="1" source="HCp1jWOT6lPPvcUnvt3E-60" target="HCp1jWOT6lPPvcUnvt3E-54" edge="1">
          <mxGeometry relative="1" as="geometry">
            <mxPoint x="655" y="490" as="sourcePoint" />
            <mxPoint x="655" y="460" as="targetPoint" />
          </mxGeometry>
        </mxCell>
        <mxCell id="V_oIrFP5sulKO1TenzHI-20" value="PlayerCharacter" style="swimlane;fontStyle=1;align=center;verticalAlign=top;childLayout=stackLayout;horizontal=1;startSize=26;horizontalStack=0;resizeParent=1;resizeParentMax=0;resizeLast=0;collapsible=1;marginBottom=0;whiteSpace=wrap;html=1;" parent="1" vertex="1">
          <mxGeometry x="440" y="743" width="261" height="60" as="geometry" />
        </mxCell>
        <mxCell id="DrACzwTK3TKXdcZGICnd-63" value="# orientation : char" style="text;strokeColor=none;fillColor=none;align=left;verticalAlign=top;spacingLeft=4;spacingRight=4;overflow=hidden;rotatable=0;points=[[0,0.5],[1,0.5]];portConstraint=eastwest;whiteSpace=wrap;html=1;" parent="V_oIrFP5sulKO1TenzHI-20" vertex="1">
          <mxGeometry y="26" width="261" height="26" as="geometry" />
        </mxCell>
        <mxCell id="V_oIrFP5sulKO1TenzHI-22" value="" style="line;strokeWidth=1;fillColor=none;align=left;verticalAlign=middle;spacingTop=-1;spacingLeft=3;spacingRight=3;rotatable=0;labelPosition=right;points=[];portConstraint=eastwest;strokeColor=inherit;" parent="V_oIrFP5sulKO1TenzHI-20" vertex="1">
          <mxGeometry y="52" width="261" height="8" as="geometry" />
        </mxCell>
        <mxCell id="V_oIrFP5sulKO1TenzHI-68" style="edgeStyle=orthogonalEdgeStyle;rounded=0;orthogonalLoop=1;jettySize=auto;html=1;dashed=1;endArrow=block;endFill=0;" parent="1" source="HCp1jWOT6lPPvcUnvt3E-64" target="HCp1jWOT6lPPvcUnvt3E-67" edge="1">
          <mxGeometry relative="1" as="geometry">
            <mxPoint x="765.0000000000001" y="810" as="sourcePoint" />
            <mxPoint x="630" y="1090" as="targetPoint" />
            <Array as="points">
              <mxPoint x="730" y="730" />
              <mxPoint x="730" y="1030" />
              <mxPoint x="540" y="1030" />
            </Array>
          </mxGeometry>
        </mxCell>
        <mxCell id="V_oIrFP5sulKO1TenzHI-34" style="edgeStyle=orthogonalEdgeStyle;rounded=0;orthogonalLoop=1;jettySize=auto;html=1;endArrow=block;endFill=0;" parent="1" source="HCp1jWOT6lPPvcUnvt3E-64" target="HCp1jWOT6lPPvcUnvt3E-60" edge="1">
          <mxGeometry relative="1" as="geometry">
            <mxPoint x="707.5" y="670" as="sourcePoint" />
            <mxPoint x="707.6300000000001" y="630" as="targetPoint" />
            <Array as="points">
              <mxPoint x="700" y="713" />
            </Array>
          </mxGeometry>
        </mxCell>
        <mxCell id="V_oIrFP5sulKO1TenzHI-45" style="edgeStyle=orthogonalEdgeStyle;rounded=0;orthogonalLoop=1;jettySize=auto;html=1;endArrow=block;endFill=0;" parent="1" source="V_oIrFP5sulKO1TenzHI-20" target="HCp1jWOT6lPPvcUnvt3E-60" edge="1">
          <mxGeometry relative="1" as="geometry">
            <mxPoint x="569.31" y="631.8199999999999" as="targetPoint" />
          </mxGeometry>
        </mxCell>
        <mxCell id="V_oIrFP5sulKO1TenzHI-67" style="edgeStyle=orthogonalEdgeStyle;rounded=0;orthogonalLoop=1;jettySize=auto;html=1;dashed=1;endArrow=block;endFill=0;" parent="1" source="HCp1jWOT6lPPvcUnvt3E-48" target="HCp1jWOT6lPPvcUnvt3E-67" edge="1">
          <mxGeometry relative="1" as="geometry">
            <mxPoint x="395" y="630" as="sourcePoint" />
            <mxPoint x="440" y="1110" as="targetPoint" />
            <Array as="points">
              <mxPoint x="410" y="570" />
              <mxPoint x="410" y="1137" />
            </Array>
          </mxGeometry>
        </mxCell>
        <mxCell id="V_oIrFP5sulKO1TenzHI-56" style="edgeStyle=orthogonalEdgeStyle;rounded=0;orthogonalLoop=1;jettySize=auto;html=1;endArrow=open;endFill=0;startArrow=diamond;startFill=0;" parent="1" source="HCp1jWOT6lPPvcUnvt3E-42" target="HCp1jWOT6lPPvcUnvt3E-30" edge="1">
          <mxGeometry relative="1" as="geometry">
            <mxPoint x="137.5" y="490" as="sourcePoint" />
            <mxPoint x="400" y="185" as="targetPoint" />
            <Array as="points">
              <mxPoint x="-390" y="160" />
            </Array>
          </mxGeometry>
        </mxCell>
        <mxCell id="V_oIrFP5sulKO1TenzHI-57" value="0..1&lt;div&gt;entityOnCase&lt;/div&gt;" style="edgeLabel;html=1;align=center;verticalAlign=middle;resizable=0;points=[];" parent="V_oIrFP5sulKO1TenzHI-56" vertex="1" connectable="0">
          <mxGeometry x="0.8148" relative="1" as="geometry">
            <mxPoint x="23" as="offset" />
          </mxGeometry>
        </mxCell>
        <mxCell id="V_oIrFP5sulKO1TenzHI-54" style="edgeStyle=orthogonalEdgeStyle;rounded=0;orthogonalLoop=1;jettySize=auto;html=1;endArrow=block;endFill=0;" parent="1" source="HCp1jWOT6lPPvcUnvt3E-42" target="HCp1jWOT6lPPvcUnvt3E-36" edge="1">
          <mxGeometry relative="1" as="geometry">
            <mxPoint x="185" y="490" as="sourcePoint" />
            <mxPoint x="250.76" y="401.3399999999999" as="targetPoint" />
            <Array as="points">
              <mxPoint x="-350" y="356" />
            </Array>
          </mxGeometry>
        </mxCell>
        <mxCell id="V_oIrFP5sulKO1TenzHI-62" style="edgeStyle=orthogonalEdgeStyle;rounded=0;orthogonalLoop=1;jettySize=auto;html=1;endArrow=open;endFill=0;" parent="1" source="HCp1jWOT6lPPvcUnvt3E-67" target="HCp1jWOT6lPPvcUnvt3E-71" edge="1">
          <mxGeometry relative="1" as="geometry">
            <mxPoint x="510" y="1330.71" as="sourcePoint" />
            <mxPoint x="740" y="1330.71" as="targetPoint" />
          </mxGeometry>
        </mxCell>
        <mxCell id="V_oIrFP5sulKO1TenzHI-63" value="0..n&lt;div&gt;interactionsList&lt;/div&gt;" style="edgeLabel;html=1;align=center;verticalAlign=middle;resizable=0;points=[];" parent="V_oIrFP5sulKO1TenzHI-62" vertex="1" connectable="0">
          <mxGeometry x="0.8211" y="-1" relative="1" as="geometry">
            <mxPoint x="-41" y="-1" as="offset" />
          </mxGeometry>
        </mxCell>
        <mxCell id="HCp1jWOT6lPPvcUnvt3E-15" style="edgeStyle=orthogonalEdgeStyle;rounded=0;orthogonalLoop=1;jettySize=auto;html=1;dashed=1;endArrow=block;endFill=0;" parent="1" source="HCp1jWOT6lPPvcUnvt3E-1" target="HCp1jWOT6lPPvcUnvt3E-9" edge="1">
          <mxGeometry relative="1" as="geometry" />
        </mxCell>
        <mxCell id="HCp1jWOT6lPPvcUnvt3E-1" value="Clock" style="swimlane;fontStyle=1;align=center;verticalAlign=top;childLayout=stackLayout;horizontal=1;startSize=26;horizontalStack=0;resizeParent=1;resizeParentMax=0;resizeLast=0;collapsible=1;marginBottom=0;whiteSpace=wrap;html=1;" parent="1" vertex="1">
          <mxGeometry x="980" y="252" width="160" height="60" as="geometry" />
        </mxCell>
        <mxCell id="HCp1jWOT6lPPvcUnvt3E-2" value="- nbTour : int" style="text;strokeColor=none;fillColor=none;align=left;verticalAlign=top;spacingLeft=4;spacingRight=4;overflow=hidden;rotatable=0;points=[[0,0.5],[1,0.5]];portConstraint=eastwest;whiteSpace=wrap;html=1;" parent="HCp1jWOT6lPPvcUnvt3E-1" vertex="1">
          <mxGeometry y="26" width="160" height="26" as="geometry" />
        </mxCell>
        <mxCell id="HCp1jWOT6lPPvcUnvt3E-3" value="" style="line;strokeWidth=1;fillColor=none;align=left;verticalAlign=middle;spacingTop=-1;spacingLeft=3;spacingRight=3;rotatable=0;labelPosition=right;points=[];portConstraint=eastwest;strokeColor=inherit;" parent="HCp1jWOT6lPPvcUnvt3E-1" vertex="1">
          <mxGeometry y="52" width="160" height="8" as="geometry" />
        </mxCell>
        <mxCell id="HCp1jWOT6lPPvcUnvt3E-5" value="&amp;lt;&amp;lt;interface&amp;gt;&amp;gt;&lt;div&gt;Observateur&lt;/div&gt;" style="swimlane;fontStyle=1;align=center;verticalAlign=top;childLayout=stackLayout;horizontal=1;startSize=40;horizontalStack=0;resizeParent=1;resizeParentMax=0;resizeLast=0;collapsible=1;marginBottom=0;whiteSpace=wrap;html=1;" parent="1" vertex="1">
          <mxGeometry x="712" y="-19" width="160" height="48" as="geometry" />
        </mxCell>
        <mxCell id="HCp1jWOT6lPPvcUnvt3E-7" value="" style="line;strokeWidth=1;fillColor=none;align=left;verticalAlign=middle;spacingTop=-1;spacingLeft=3;spacingRight=3;rotatable=0;labelPosition=right;points=[];portConstraint=eastwest;strokeColor=inherit;" parent="HCp1jWOT6lPPvcUnvt3E-5" vertex="1">
          <mxGeometry y="40" width="160" height="8" as="geometry" />
        </mxCell>
        <mxCell id="pYf7q3VQLDyf8TSh6IOd-6" style="edgeStyle=orthogonalEdgeStyle;rounded=0;orthogonalLoop=1;jettySize=auto;html=1;endArrow=open;endFill=0;" parent="1" source="HCp1jWOT6lPPvcUnvt3E-9" target="HCp1jWOT6lPPvcUnvt3E-5" edge="1">
          <mxGeometry relative="1" as="geometry" />
        </mxCell>
        <mxCell id="pYf7q3VQLDyf8TSh6IOd-7" value="0..*&lt;div&gt;observateurs&lt;/div&gt;" style="edgeLabel;html=1;align=center;verticalAlign=middle;resizable=0;points=[];" parent="pYf7q3VQLDyf8TSh6IOd-6" vertex="1" connectable="0">
          <mxGeometry x="0.5665" relative="1" as="geometry">
            <mxPoint x="27" y="24" as="offset" />
          </mxGeometry>
        </mxCell>
        <mxCell id="HCp1jWOT6lPPvcUnvt3E-9" value="&amp;lt;&amp;lt;interface&amp;gt;&amp;gt;&lt;div&gt;Observable&lt;/div&gt;" style="swimlane;fontStyle=1;align=center;verticalAlign=top;childLayout=stackLayout;horizontal=1;startSize=40;horizontalStack=0;resizeParent=1;resizeParentMax=0;resizeLast=0;collapsible=1;marginBottom=0;whiteSpace=wrap;html=1;" parent="1" vertex="1">
          <mxGeometry x="980" width="252" height="48" as="geometry" />
        </mxCell>
        <mxCell id="HCp1jWOT6lPPvcUnvt3E-11" value="" style="line;strokeWidth=1;fillColor=none;align=left;verticalAlign=middle;spacingTop=-1;spacingLeft=3;spacingRight=3;rotatable=0;labelPosition=right;points=[];portConstraint=eastwest;strokeColor=inherit;" parent="HCp1jWOT6lPPvcUnvt3E-9" vertex="1">
          <mxGeometry y="40" width="252" height="8" as="geometry" />
        </mxCell>
        <mxCell id="r0xivs-joTKTYX9kbpUL-134" style="edgeStyle=orthogonalEdgeStyle;rounded=0;orthogonalLoop=1;jettySize=auto;html=1;endArrow=open;endFill=0;" parent="1" source="HCp1jWOT6lPPvcUnvt3E-18" target="HCp1jWOT6lPPvcUnvt3E-1" edge="1">
          <mxGeometry relative="1" as="geometry">
            <Array as="points">
              <mxPoint x="1060" y="370" />
            </Array>
          </mxGeometry>
        </mxCell>
        <mxCell id="r0xivs-joTKTYX9kbpUL-138" value="1..1&lt;div&gt;clock&lt;/div&gt;" style="edgeLabel;html=1;align=center;verticalAlign=middle;resizable=0;points=[];" parent="r0xivs-joTKTYX9kbpUL-134" vertex="1" connectable="0">
          <mxGeometry x="0.9191" y="4" relative="1" as="geometry">
            <mxPoint as="offset" />
          </mxGeometry>
        </mxCell>
        <mxCell id="r0xivs-joTKTYX9kbpUL-135" style="edgeStyle=orthogonalEdgeStyle;rounded=0;orthogonalLoop=1;jettySize=auto;html=1;endArrow=open;endFill=0;" parent="1" source="HCp1jWOT6lPPvcUnvt3E-18" target="HCp1jWOT6lPPvcUnvt3E-121" edge="1">
          <mxGeometry relative="1" as="geometry">
            <Array as="points">
              <mxPoint x="2080" y="270" />
              <mxPoint x="1805" y="270" />
            </Array>
          </mxGeometry>
        </mxCell>
        <mxCell id="r0xivs-joTKTYX9kbpUL-139" value="1..1&lt;div&gt;board&lt;/div&gt;" style="edgeLabel;html=1;align=center;verticalAlign=middle;resizable=0;points=[];" parent="r0xivs-joTKTYX9kbpUL-135" vertex="1" connectable="0">
          <mxGeometry x="0.919" y="1" relative="1" as="geometry">
            <mxPoint x="30" y="1" as="offset" />
          </mxGeometry>
        </mxCell>
        <mxCell id="r0xivs-joTKTYX9kbpUL-136" style="edgeStyle=orthogonalEdgeStyle;rounded=0;orthogonalLoop=1;jettySize=auto;html=1;endArrow=open;endFill=0;" parent="1" source="HCp1jWOT6lPPvcUnvt3E-18" target="HCp1jWOT6lPPvcUnvt3E-22" edge="1">
          <mxGeometry relative="1" as="geometry">
            <Array as="points">
              <mxPoint x="2490" y="354" />
              <mxPoint x="2490" y="354" />
            </Array>
          </mxGeometry>
        </mxCell>
        <mxCell id="pYf7q3VQLDyf8TSh6IOd-4" value="1..1&lt;div&gt;ihm&lt;/div&gt;" style="edgeLabel;html=1;align=center;verticalAlign=middle;resizable=0;points=[];" parent="r0xivs-joTKTYX9kbpUL-136" vertex="1" connectable="0">
          <mxGeometry x="0.8353" y="2" relative="1" as="geometry">
            <mxPoint as="offset" />
          </mxGeometry>
        </mxCell>
        <mxCell id="DrACzwTK3TKXdcZGICnd-43" style="edgeStyle=orthogonalEdgeStyle;rounded=0;orthogonalLoop=1;jettySize=auto;html=1;endArrow=open;endFill=0;" parent="1" source="HCp1jWOT6lPPvcUnvt3E-18" target="DrACzwTK3TKXdcZGICnd-5" edge="1">
          <mxGeometry relative="1" as="geometry" />
        </mxCell>
        <mxCell id="XjsQFoxlmk537Zc9GoqI-35" value="1..1&lt;div&gt;inventory&lt;/div&gt;" style="edgeLabel;html=1;align=center;verticalAlign=middle;resizable=0;points=[];" parent="DrACzwTK3TKXdcZGICnd-43" vertex="1" connectable="0">
          <mxGeometry x="0.6923" relative="1" as="geometry">
            <mxPoint as="offset" />
          </mxGeometry>
        </mxCell>
        <mxCell id="DrACzwTK3TKXdcZGICnd-61" style="edgeStyle=orthogonalEdgeStyle;rounded=0;orthogonalLoop=1;jettySize=auto;html=1;endArrow=open;endFill=0;" parent="1" source="HCp1jWOT6lPPvcUnvt3E-18" target="V_oIrFP5sulKO1TenzHI-20" edge="1">
          <mxGeometry relative="1" as="geometry">
            <Array as="points">
              <mxPoint x="2064" y="424" />
              <mxPoint x="510" y="424" />
            </Array>
          </mxGeometry>
        </mxCell>
        <mxCell id="pYf7q3VQLDyf8TSh6IOd-5" value="1..1&lt;div&gt;playerCharacter&lt;/div&gt;" style="edgeLabel;html=1;align=center;verticalAlign=middle;resizable=0;points=[];" parent="DrACzwTK3TKXdcZGICnd-61" vertex="1" connectable="0">
          <mxGeometry x="0.9619" y="-2" relative="1" as="geometry">
            <mxPoint as="offset" />
          </mxGeometry>
        </mxCell>
        <mxCell id="HCp1jWOT6lPPvcUnvt3E-18" value="Controleur" style="swimlane;fontStyle=1;align=center;verticalAlign=top;childLayout=stackLayout;horizontal=1;startSize=26;horizontalStack=0;resizeParent=1;resizeParentMax=0;resizeLast=0;collapsible=1;marginBottom=0;whiteSpace=wrap;html=1;" parent="1" vertex="1">
          <mxGeometry x="2000" y="294" width="190" height="115" as="geometry" />
        </mxCell>
        <mxCell id="HCp1jWOT6lPPvcUnvt3E-19" value="+ actionHistory : Queue&amp;lt;String&amp;gt;" style="text;strokeColor=none;fillColor=none;align=left;verticalAlign=top;spacingLeft=4;spacingRight=4;overflow=hidden;rotatable=0;points=[[0,0.5],[1,0.5]];portConstraint=eastwest;whiteSpace=wrap;html=1;" parent="HCp1jWOT6lPPvcUnvt3E-18" vertex="1">
          <mxGeometry y="26" width="190" height="29" as="geometry" />
        </mxCell>
        <mxCell id="l9vW0RXhgVoUWkP2VZ4Z-25" value="+ curentObject: int" style="text;strokeColor=none;fillColor=none;align=left;verticalAlign=top;spacingLeft=4;spacingRight=4;overflow=hidden;rotatable=0;points=[[0,0.5],[1,0.5]];portConstraint=eastwest;whiteSpace=wrap;html=1;" parent="HCp1jWOT6lPPvcUnvt3E-18" vertex="1">
          <mxGeometry y="55" width="190" height="26" as="geometry" />
        </mxCell>
        <mxCell id="l9vW0RXhgVoUWkP2VZ4Z-24" value="+ inventory: List&amp;lt;Entity&amp;gt;" style="text;strokeColor=none;fillColor=none;align=left;verticalAlign=top;spacingLeft=4;spacingRight=4;overflow=hidden;rotatable=0;points=[[0,0.5],[1,0.5]];portConstraint=eastwest;whiteSpace=wrap;html=1;" parent="HCp1jWOT6lPPvcUnvt3E-18" vertex="1">
          <mxGeometry y="81" width="190" height="26" as="geometry" />
        </mxCell>
        <mxCell id="HCp1jWOT6lPPvcUnvt3E-20" value="" style="line;strokeWidth=1;fillColor=none;align=left;verticalAlign=middle;spacingTop=-1;spacingLeft=3;spacingRight=3;rotatable=0;labelPosition=right;points=[];portConstraint=eastwest;strokeColor=inherit;" parent="HCp1jWOT6lPPvcUnvt3E-18" vertex="1">
          <mxGeometry y="107" width="190" height="8" as="geometry" />
        </mxCell>
        <mxCell id="HCp1jWOT6lPPvcUnvt3E-22" value="Ihm" style="swimlane;fontStyle=1;align=center;verticalAlign=top;childLayout=stackLayout;horizontal=1;startSize=26;horizontalStack=0;resizeParent=1;resizeParentMax=0;resizeLast=0;collapsible=1;marginBottom=0;whiteSpace=wrap;html=1;" parent="1" vertex="1">
          <mxGeometry x="2700" y="252" width="835" height="138" as="geometry" />
        </mxCell>
        <mxCell id="XjsQFoxlmk537Zc9GoqI-1" value="- last_frame : String[]" style="text;strokeColor=none;fillColor=none;align=left;verticalAlign=top;spacingLeft=4;spacingRight=4;overflow=hidden;rotatable=0;points=[[0,0.5],[1,0.5]];portConstraint=eastwest;whiteSpace=wrap;html=1;" parent="HCp1jWOT6lPPvcUnvt3E-22" vertex="1">
          <mxGeometry y="26" width="835" height="26" as="geometry" />
        </mxCell>
        <mxCell id="HCp1jWOT6lPPvcUnvt3E-23" value="- displayHeight : int" style="text;strokeColor=none;fillColor=none;align=left;verticalAlign=top;spacingLeft=4;spacingRight=4;overflow=hidden;rotatable=0;points=[[0,0.5],[1,0.5]];portConstraint=eastwest;whiteSpace=wrap;html=1;" parent="HCp1jWOT6lPPvcUnvt3E-22" vertex="1">
          <mxGeometry y="52" width="835" height="26" as="geometry" />
        </mxCell>
        <mxCell id="DrACzwTK3TKXdcZGICnd-57" value="- displayWidth : int" style="text;strokeColor=none;fillColor=none;align=left;verticalAlign=top;spacingLeft=4;spacingRight=4;overflow=hidden;rotatable=0;points=[[0,0.5],[1,0.5]];portConstraint=eastwest;whiteSpace=wrap;html=1;" parent="HCp1jWOT6lPPvcUnvt3E-22" vertex="1">
          <mxGeometry y="78" width="835" height="26" as="geometry" />
        </mxCell>
        <mxCell id="pYf7q3VQLDyf8TSh6IOd-1" value="- sc : Scanner()" style="text;strokeColor=none;fillColor=none;align=left;verticalAlign=top;spacingLeft=4;spacingRight=4;overflow=hidden;rotatable=0;points=[[0,0.5],[1,0.5]];portConstraint=eastwest;whiteSpace=wrap;html=1;" parent="HCp1jWOT6lPPvcUnvt3E-22" vertex="1">
          <mxGeometry y="104" width="835" height="26" as="geometry" />
        </mxCell>
        <mxCell id="HCp1jWOT6lPPvcUnvt3E-24" value="" style="line;strokeWidth=1;fillColor=none;align=left;verticalAlign=middle;spacingTop=-1;spacingLeft=3;spacingRight=3;rotatable=0;labelPosition=right;points=[];portConstraint=eastwest;strokeColor=inherit;" parent="HCp1jWOT6lPPvcUnvt3E-22" vertex="1">
          <mxGeometry y="130" width="835" height="8" as="geometry" />
        </mxCell>
        <mxCell id="HCp1jWOT6lPPvcUnvt3E-30" value="&amp;lt;&amp;lt;abstract&amp;gt;&amp;gt;&lt;div&gt;Entity&lt;/div&gt;" style="swimlane;fontStyle=1;align=center;verticalAlign=top;childLayout=stackLayout;horizontal=1;startSize=40;horizontalStack=0;resizeParent=1;resizeParentMax=0;resizeLast=0;collapsible=1;marginBottom=0;whiteSpace=wrap;html=1;" parent="1" vertex="1">
          <mxGeometry x="398" y="120" width="176" height="126" as="geometry" />
        </mxCell>
        <mxCell id="HCp1jWOT6lPPvcUnvt3E-31" value="# x : int" style="text;strokeColor=none;fillColor=none;align=left;verticalAlign=top;spacingLeft=4;spacingRight=4;overflow=hidden;rotatable=0;points=[[0,0.5],[1,0.5]];portConstraint=eastwest;whiteSpace=wrap;html=1;" parent="HCp1jWOT6lPPvcUnvt3E-30" vertex="1">
          <mxGeometry y="40" width="176" height="26" as="geometry" />
        </mxCell>
        <mxCell id="HCp1jWOT6lPPvcUnvt3E-34" value="#&amp;nbsp;y : int" style="text;strokeColor=none;fillColor=none;align=left;verticalAlign=top;spacingLeft=4;spacingRight=4;overflow=hidden;rotatable=0;points=[[0,0.5],[1,0.5]];portConstraint=eastwest;whiteSpace=wrap;html=1;" parent="HCp1jWOT6lPPvcUnvt3E-30" vertex="1">
          <mxGeometry y="66" width="176" height="26" as="geometry" />
        </mxCell>
        <mxCell id="HCp1jWOT6lPPvcUnvt3E-96" value="#&amp;nbsp;representation: String" style="text;strokeColor=none;fillColor=none;align=left;verticalAlign=top;spacingLeft=4;spacingRight=4;overflow=hidden;rotatable=0;points=[[0,0.5],[1,0.5]];portConstraint=eastwest;whiteSpace=wrap;html=1;" parent="HCp1jWOT6lPPvcUnvt3E-30" vertex="1">
          <mxGeometry y="92" width="176" height="26" as="geometry" />
        </mxCell>
        <mxCell id="HCp1jWOT6lPPvcUnvt3E-32" value="" style="line;strokeWidth=1;fillColor=none;align=left;verticalAlign=middle;spacingTop=-1;spacingLeft=3;spacingRight=3;rotatable=0;labelPosition=right;points=[];portConstraint=eastwest;strokeColor=inherit;" parent="HCp1jWOT6lPPvcUnvt3E-30" vertex="1">
          <mxGeometry y="118" width="176" height="8" as="geometry" />
        </mxCell>
        <mxCell id="HCp1jWOT6lPPvcUnvt3E-36" value="&amp;lt;&amp;lt;abstract&amp;gt;&amp;gt;&lt;div&gt;StaticEntity&lt;/div&gt;" style="swimlane;fontStyle=1;align=center;verticalAlign=top;childLayout=stackLayout;horizontal=1;startSize=40;horizontalStack=0;resizeParent=1;resizeParentMax=0;resizeLast=0;collapsible=1;marginBottom=0;whiteSpace=wrap;html=1;" parent="1" vertex="1">
          <mxGeometry x="50" y="332" width="160" height="48" as="geometry" />
        </mxCell>
        <mxCell id="HCp1jWOT6lPPvcUnvt3E-39" value="" style="line;strokeWidth=1;fillColor=none;align=left;verticalAlign=middle;spacingTop=-1;spacingLeft=3;spacingRight=3;rotatable=0;labelPosition=right;points=[];portConstraint=eastwest;strokeColor=inherit;" parent="HCp1jWOT6lPPvcUnvt3E-36" vertex="1">
          <mxGeometry y="40" width="160" height="8" as="geometry" />
        </mxCell>
        <mxCell id="HCp1jWOT6lPPvcUnvt3E-42" value="&amp;lt;&amp;lt;abstract&amp;gt;&amp;gt;&lt;div&gt;Terrain&lt;/div&gt;" style="swimlane;fontStyle=1;align=center;verticalAlign=top;childLayout=stackLayout;horizontal=1;startSize=40;horizontalStack=0;resizeParent=1;resizeParentMax=0;resizeLast=0;collapsible=1;marginBottom=0;whiteSpace=wrap;html=1;" parent="1" vertex="1">
          <mxGeometry x="-494" y="507" width="228" height="48" as="geometry" />
        </mxCell>
        <mxCell id="HCp1jWOT6lPPvcUnvt3E-45" value="" style="line;strokeWidth=1;fillColor=none;align=left;verticalAlign=middle;spacingTop=-1;spacingLeft=3;spacingRight=3;rotatable=0;labelPosition=right;points=[];portConstraint=eastwest;strokeColor=inherit;" parent="HCp1jWOT6lPPvcUnvt3E-42" vertex="1">
          <mxGeometry y="40" width="228" height="8" as="geometry" />
        </mxCell>
        <mxCell id="HCp1jWOT6lPPvcUnvt3E-107" style="edgeStyle=orthogonalEdgeStyle;rounded=0;orthogonalLoop=1;jettySize=auto;html=1;endArrow=block;endFill=0;" parent="1" source="HCp1jWOT6lPPvcUnvt3E-48" target="HCp1jWOT6lPPvcUnvt3E-36" edge="1">
          <mxGeometry relative="1" as="geometry" />
        </mxCell>
        <mxCell id="HCp1jWOT6lPPvcUnvt3E-48" value="&amp;lt;&amp;lt;abstract&amp;gt;&amp;gt;&lt;div&gt;Food&lt;/div&gt;" style="swimlane;fontStyle=1;align=center;verticalAlign=top;childLayout=stackLayout;horizontal=1;startSize=40;horizontalStack=0;resizeParent=1;resizeParentMax=0;resizeLast=0;collapsible=1;marginBottom=0;whiteSpace=wrap;html=1;" parent="1" vertex="1">
          <mxGeometry x="30" y="530" width="160" height="74" as="geometry" />
        </mxCell>
        <mxCell id="XjsQFoxlmk537Zc9GoqI-117" value="# displayName : String" style="text;strokeColor=none;fillColor=none;align=left;verticalAlign=top;spacingLeft=4;spacingRight=4;overflow=hidden;rotatable=0;points=[[0,0.5],[1,0.5]];portConstraint=eastwest;whiteSpace=wrap;html=1;" parent="HCp1jWOT6lPPvcUnvt3E-48" vertex="1">
          <mxGeometry y="40" width="160" height="26" as="geometry" />
        </mxCell>
        <mxCell id="HCp1jWOT6lPPvcUnvt3E-51" value="" style="line;strokeWidth=1;fillColor=none;align=left;verticalAlign=middle;spacingTop=-1;spacingLeft=3;spacingRight=3;rotatable=0;labelPosition=right;points=[];portConstraint=eastwest;strokeColor=inherit;" parent="HCp1jWOT6lPPvcUnvt3E-48" vertex="1">
          <mxGeometry y="66" width="160" height="8" as="geometry" />
        </mxCell>
        <mxCell id="HCp1jWOT6lPPvcUnvt3E-54" value="&amp;lt;&amp;lt;abstract&amp;gt;&amp;gt;&lt;div&gt;MovableEntity&lt;/div&gt;" style="swimlane;fontStyle=1;align=center;verticalAlign=top;childLayout=stackLayout;horizontal=1;startSize=40;horizontalStack=0;resizeParent=1;resizeParentMax=0;resizeLast=0;collapsible=1;marginBottom=0;whiteSpace=wrap;html=1;" parent="1" vertex="1">
          <mxGeometry x="601" y="303" width="241" height="48" as="geometry" />
        </mxCell>
        <mxCell id="HCp1jWOT6lPPvcUnvt3E-57" value="" style="line;strokeWidth=1;fillColor=none;align=left;verticalAlign=middle;spacingTop=-1;spacingLeft=3;spacingRight=3;rotatable=0;labelPosition=right;points=[];portConstraint=eastwest;strokeColor=inherit;" parent="HCp1jWOT6lPPvcUnvt3E-54" vertex="1">
          <mxGeometry y="40" width="241" height="8" as="geometry" />
        </mxCell>
        <mxCell id="HCp1jWOT6lPPvcUnvt3E-63" style="edgeStyle=orthogonalEdgeStyle;rounded=0;orthogonalLoop=1;jettySize=auto;html=1;dashed=1;exitX=0.25;exitY=0;exitDx=0;exitDy=0;endArrow=block;endFill=0;" parent="1" source="HCp1jWOT6lPPvcUnvt3E-64" target="HCp1jWOT6lPPvcUnvt3E-5" edge="1">
          <mxGeometry relative="1" as="geometry">
            <Array as="points">
              <mxPoint x="991" y="520" />
              <mxPoint x="850" y="520" />
            </Array>
          </mxGeometry>
        </mxCell>
        <mxCell id="HCp1jWOT6lPPvcUnvt3E-60" value="&amp;lt;&amp;lt;abstract&amp;gt;&amp;gt;&lt;div&gt;Character&lt;/div&gt;" style="swimlane;fontStyle=1;align=center;verticalAlign=top;childLayout=stackLayout;horizontal=1;startSize=40;horizontalStack=0;resizeParent=1;resizeParentMax=0;resizeLast=0;collapsible=1;marginBottom=0;whiteSpace=wrap;html=1;" parent="1" vertex="1">
          <mxGeometry x="574" y="511" width="166" height="48" as="geometry" />
        </mxCell>
        <mxCell id="HCp1jWOT6lPPvcUnvt3E-61" value="" style="line;strokeWidth=1;fillColor=none;align=left;verticalAlign=middle;spacingTop=-1;spacingLeft=3;spacingRight=3;rotatable=0;labelPosition=right;points=[];portConstraint=eastwest;strokeColor=inherit;" parent="HCp1jWOT6lPPvcUnvt3E-60" vertex="1">
          <mxGeometry y="40" width="166" height="8" as="geometry" />
        </mxCell>
        <mxCell id="r0xivs-joTKTYX9kbpUL-11" style="edgeStyle=orthogonalEdgeStyle;rounded=0;orthogonalLoop=1;jettySize=auto;html=1;endArrow=open;endFill=0;" parent="1" source="HCp1jWOT6lPPvcUnvt3E-64" target="r0xivs-joTKTYX9kbpUL-1" edge="1">
          <mxGeometry relative="1" as="geometry">
            <Array as="points">
              <mxPoint x="1033" y="660" />
              <mxPoint x="1523" y="660" />
            </Array>
          </mxGeometry>
        </mxCell>
        <mxCell id="r0xivs-joTKTYX9kbpUL-66" value="&lt;div&gt;1..1&lt;/div&gt;curentState" style="edgeLabel;html=1;align=center;verticalAlign=middle;resizable=0;points=[];" parent="r0xivs-joTKTYX9kbpUL-11" vertex="1" connectable="0">
          <mxGeometry x="0.8295" relative="1" as="geometry">
            <mxPoint x="-34" y="-1" as="offset" />
          </mxGeometry>
        </mxCell>
        <mxCell id="HCp1jWOT6lPPvcUnvt3E-64" value="&amp;lt;&amp;lt;Abstract&amp;gt;&amp;gt;&lt;div&gt;NonPlayerCharacter&lt;/div&gt;" style="swimlane;fontStyle=1;align=center;verticalAlign=top;childLayout=stackLayout;horizontal=1;startSize=40;horizontalStack=0;resizeParent=1;resizeParentMax=0;resizeLast=0;collapsible=1;marginBottom=0;whiteSpace=wrap;html=1;" parent="1" vertex="1">
          <mxGeometry x="913" y="625" width="314" height="152" as="geometry" />
        </mxCell>
        <mxCell id="r0xivs-joTKTYX9kbpUL-67" value="+ hungryCountBase : int" style="text;strokeColor=none;fillColor=none;align=left;verticalAlign=top;spacingLeft=4;spacingRight=4;overflow=hidden;rotatable=0;points=[[0,0.5],[1,0.5]];portConstraint=eastwest;whiteSpace=wrap;html=1;" parent="HCp1jWOT6lPPvcUnvt3E-64" vertex="1">
          <mxGeometry y="40" width="314" height="26" as="geometry" />
        </mxCell>
        <mxCell id="pYf7q3VQLDyf8TSh6IOd-22" value="- hungryCount : int" style="text;strokeColor=none;fillColor=none;align=left;verticalAlign=top;spacingLeft=4;spacingRight=4;overflow=hidden;rotatable=0;points=[[0,0.5],[1,0.5]];portConstraint=eastwest;whiteSpace=wrap;html=1;" parent="HCp1jWOT6lPPvcUnvt3E-64" vertex="1">
          <mxGeometry y="66" width="314" height="26" as="geometry" />
        </mxCell>
        <mxCell id="HCp1jWOT6lPPvcUnvt3E-85" value="# foodPreference :&amp;nbsp;Class&amp;lt;? extends Food&amp;gt;" style="text;strokeColor=none;fillColor=none;align=left;verticalAlign=top;spacingLeft=4;spacingRight=4;overflow=hidden;rotatable=0;points=[[0,0.5],[1,0.5]];portConstraint=eastwest;whiteSpace=wrap;html=1;" parent="HCp1jWOT6lPPvcUnvt3E-64" vertex="1">
          <mxGeometry y="92" width="314" height="26" as="geometry" />
        </mxCell>
        <mxCell id="XjsQFoxlmk537Zc9GoqI-105" value="# friendLevel : int" style="text;strokeColor=none;fillColor=none;align=left;verticalAlign=top;spacingLeft=4;spacingRight=4;overflow=hidden;rotatable=0;points=[[0,0.5],[1,0.5]];portConstraint=eastwest;whiteSpace=wrap;html=1;" parent="HCp1jWOT6lPPvcUnvt3E-64" vertex="1">
          <mxGeometry y="118" width="314" height="26" as="geometry" />
        </mxCell>
        <mxCell id="HCp1jWOT6lPPvcUnvt3E-65" value="" style="line;strokeWidth=1;fillColor=none;align=left;verticalAlign=middle;spacingTop=-1;spacingLeft=3;spacingRight=3;rotatable=0;labelPosition=right;points=[];portConstraint=eastwest;strokeColor=inherit;" parent="HCp1jWOT6lPPvcUnvt3E-64" vertex="1">
          <mxGeometry y="144" width="314" height="8" as="geometry" />
        </mxCell>
        <mxCell id="HCp1jWOT6lPPvcUnvt3E-67" value="&amp;lt;&amp;lt;interface&amp;gt;&amp;gt;&lt;div&gt;Interactible&lt;/div&gt;" style="swimlane;fontStyle=1;align=center;verticalAlign=top;childLayout=stackLayout;horizontal=1;startSize=40;horizontalStack=0;resizeParent=1;resizeParentMax=0;resizeLast=0;collapsible=1;marginBottom=0;whiteSpace=wrap;html=1;" parent="1" vertex="1">
          <mxGeometry x="440" y="1311" width="180" height="48" as="geometry" />
        </mxCell>
        <mxCell id="HCp1jWOT6lPPvcUnvt3E-69" value="" style="line;strokeWidth=1;fillColor=none;align=left;verticalAlign=middle;spacingTop=-1;spacingLeft=3;spacingRight=3;rotatable=0;labelPosition=right;points=[];portConstraint=eastwest;strokeColor=inherit;" parent="HCp1jWOT6lPPvcUnvt3E-67" vertex="1">
          <mxGeometry y="40" width="180" height="8" as="geometry" />
        </mxCell>
        <mxCell id="HCp1jWOT6lPPvcUnvt3E-71" value="&amp;lt;&amp;lt;interface&amp;gt;&amp;gt;&lt;div&gt;Interaction&lt;/div&gt;" style="swimlane;fontStyle=1;align=center;verticalAlign=top;childLayout=stackLayout;horizontal=1;startSize=40;horizontalStack=0;resizeParent=1;resizeParentMax=0;resizeLast=0;collapsible=1;marginBottom=0;whiteSpace=wrap;html=1;" parent="1" vertex="1">
          <mxGeometry x="830" y="1311" width="366" height="48" as="geometry" />
        </mxCell>
        <mxCell id="HCp1jWOT6lPPvcUnvt3E-72" value="" style="line;strokeWidth=1;fillColor=none;align=left;verticalAlign=middle;spacingTop=-1;spacingLeft=3;spacingRight=3;rotatable=0;labelPosition=right;points=[];portConstraint=eastwest;strokeColor=inherit;" parent="HCp1jWOT6lPPvcUnvt3E-71" vertex="1">
          <mxGeometry y="40" width="366" height="8" as="geometry" />
        </mxCell>
        <mxCell id="HCp1jWOT6lPPvcUnvt3E-97" style="edgeStyle=orthogonalEdgeStyle;rounded=0;orthogonalLoop=1;jettySize=auto;html=1;endArrow=block;endFill=0;" parent="1" source="HCp1jWOT6lPPvcUnvt3E-87" target="HCp1jWOT6lPPvcUnvt3E-42" edge="1">
          <mxGeometry relative="1" as="geometry">
            <Array as="points">
              <mxPoint x="-630" y="620" />
            </Array>
          </mxGeometry>
        </mxCell>
        <mxCell id="HCp1jWOT6lPPvcUnvt3E-87" value="&lt;div&gt;&amp;lt;&amp;lt;abstract&amp;gt;&amp;gt;&lt;/div&gt;High" style="swimlane;fontStyle=1;align=center;verticalAlign=top;childLayout=stackLayout;horizontal=1;startSize=42;horizontalStack=0;resizeParent=1;resizeParentMax=0;resizeLast=0;collapsible=1;marginBottom=0;whiteSpace=wrap;html=1;" parent="1" vertex="1">
          <mxGeometry x="-705" y="734.5" width="160" height="50" as="geometry" />
        </mxCell>
        <mxCell id="HCp1jWOT6lPPvcUnvt3E-88" value="" style="line;strokeWidth=1;fillColor=none;align=left;verticalAlign=middle;spacingTop=-1;spacingLeft=3;spacingRight=3;rotatable=0;labelPosition=right;points=[];portConstraint=eastwest;strokeColor=inherit;" parent="HCp1jWOT6lPPvcUnvt3E-87" vertex="1">
          <mxGeometry y="42" width="160" height="8" as="geometry" />
        </mxCell>
        <mxCell id="HCp1jWOT6lPPvcUnvt3E-98" style="edgeStyle=orthogonalEdgeStyle;rounded=0;orthogonalLoop=1;jettySize=auto;html=1;endArrow=block;endFill=0;" parent="1" source="HCp1jWOT6lPPvcUnvt3E-89" target="HCp1jWOT6lPPvcUnvt3E-42" edge="1">
          <mxGeometry relative="1" as="geometry">
            <Array as="points">
              <mxPoint x="-410" y="646" />
              <mxPoint x="-354" y="646" />
            </Array>
          </mxGeometry>
        </mxCell>
        <mxCell id="HCp1jWOT6lPPvcUnvt3E-89" value="&lt;div&gt;&amp;lt;&amp;lt;abstract&amp;gt;&amp;gt;&lt;/div&gt;Low" style="swimlane;fontStyle=1;align=center;verticalAlign=top;childLayout=stackLayout;horizontal=1;startSize=37;horizontalStack=0;resizeParent=1;resizeParentMax=0;resizeLast=0;collapsible=1;marginBottom=0;whiteSpace=wrap;html=1;" parent="1" vertex="1">
          <mxGeometry x="-490" y="737" width="160" height="45" as="geometry" />
        </mxCell>
        <mxCell id="HCp1jWOT6lPPvcUnvt3E-90" value="" style="line;strokeWidth=1;fillColor=none;align=left;verticalAlign=middle;spacingTop=-1;spacingLeft=3;spacingRight=3;rotatable=0;labelPosition=right;points=[];portConstraint=eastwest;strokeColor=inherit;" parent="HCp1jWOT6lPPvcUnvt3E-89" vertex="1">
          <mxGeometry y="37" width="160" height="8" as="geometry" />
        </mxCell>
        <mxCell id="HCp1jWOT6lPPvcUnvt3E-108" style="edgeStyle=orthogonalEdgeStyle;rounded=0;orthogonalLoop=1;jettySize=auto;html=1;endArrow=block;endFill=0;" parent="1" source="HCp1jWOT6lPPvcUnvt3E-99" target="HCp1jWOT6lPPvcUnvt3E-48" edge="1">
          <mxGeometry relative="1" as="geometry">
            <Array as="points">
              <mxPoint x="-130" y="567" />
            </Array>
          </mxGeometry>
        </mxCell>
        <mxCell id="HCp1jWOT6lPPvcUnvt3E-99" value="Mushroom" style="swimlane;fontStyle=1;align=center;verticalAlign=top;childLayout=stackLayout;horizontal=1;startSize=29;horizontalStack=0;resizeParent=1;resizeParentMax=0;resizeLast=0;collapsible=1;marginBottom=0;whiteSpace=wrap;html=1;" parent="1" vertex="1">
          <mxGeometry x="-210" y="730" width="160" height="37" as="geometry" />
        </mxCell>
        <mxCell id="HCp1jWOT6lPPvcUnvt3E-101" value="" style="line;strokeWidth=1;fillColor=none;align=left;verticalAlign=middle;spacingTop=-1;spacingLeft=3;spacingRight=3;rotatable=0;labelPosition=right;points=[];portConstraint=eastwest;strokeColor=inherit;" parent="HCp1jWOT6lPPvcUnvt3E-99" vertex="1">
          <mxGeometry y="29" width="160" height="8" as="geometry" />
        </mxCell>
        <mxCell id="HCp1jWOT6lPPvcUnvt3E-109" style="edgeStyle=orthogonalEdgeStyle;rounded=0;orthogonalLoop=1;jettySize=auto;html=1;endArrow=block;endFill=0;" parent="1" source="HCp1jWOT6lPPvcUnvt3E-102" target="HCp1jWOT6lPPvcUnvt3E-48" edge="1">
          <mxGeometry relative="1" as="geometry" />
        </mxCell>
        <mxCell id="HCp1jWOT6lPPvcUnvt3E-102" value="Acorn" style="swimlane;fontStyle=1;align=center;verticalAlign=top;childLayout=stackLayout;horizontal=1;startSize=29;horizontalStack=0;resizeParent=1;resizeParentMax=0;resizeLast=0;collapsible=1;marginBottom=0;whiteSpace=wrap;html=1;" parent="1" vertex="1">
          <mxGeometry x="-20" y="730" width="160" height="37" as="geometry" />
        </mxCell>
        <mxCell id="HCp1jWOT6lPPvcUnvt3E-104" value="" style="line;strokeWidth=1;fillColor=none;align=left;verticalAlign=middle;spacingTop=-1;spacingLeft=3;spacingRight=3;rotatable=0;labelPosition=right;points=[];portConstraint=eastwest;strokeColor=inherit;" parent="HCp1jWOT6lPPvcUnvt3E-102" vertex="1">
          <mxGeometry y="29" width="160" height="8" as="geometry" />
        </mxCell>
        <mxCell id="HCp1jWOT6lPPvcUnvt3E-110" style="edgeStyle=orthogonalEdgeStyle;rounded=0;orthogonalLoop=1;jettySize=auto;html=1;endArrow=block;endFill=0;" parent="1" source="HCp1jWOT6lPPvcUnvt3E-105" target="HCp1jWOT6lPPvcUnvt3E-48" edge="1">
          <mxGeometry relative="1" as="geometry">
            <Array as="points">
              <mxPoint x="250" y="620" />
              <mxPoint x="140" y="620" />
            </Array>
          </mxGeometry>
        </mxCell>
        <mxCell id="HCp1jWOT6lPPvcUnvt3E-105" value="Banana" style="swimlane;fontStyle=1;align=center;verticalAlign=top;childLayout=stackLayout;horizontal=1;startSize=29;horizontalStack=0;resizeParent=1;resizeParentMax=0;resizeLast=0;collapsible=1;marginBottom=0;whiteSpace=wrap;html=1;" parent="1" vertex="1">
          <mxGeometry x="170" y="730" width="160" height="37" as="geometry" />
        </mxCell>
        <mxCell id="HCp1jWOT6lPPvcUnvt3E-106" value="" style="line;strokeWidth=1;fillColor=none;align=left;verticalAlign=middle;spacingTop=-1;spacingLeft=3;spacingRight=3;rotatable=0;labelPosition=right;points=[];portConstraint=eastwest;strokeColor=inherit;" parent="HCp1jWOT6lPPvcUnvt3E-105" vertex="1">
          <mxGeometry y="29" width="160" height="8" as="geometry" />
        </mxCell>
        <mxCell id="HCp1jWOT6lPPvcUnvt3E-115" style="edgeStyle=orthogonalEdgeStyle;rounded=0;orthogonalLoop=1;jettySize=auto;html=1;endArrow=block;endFill=0;" parent="1" source="HCp1jWOT6lPPvcUnvt3E-111" target="HCp1jWOT6lPPvcUnvt3E-64" edge="1">
          <mxGeometry relative="1" as="geometry">
            <Array as="points">
              <mxPoint x="966" y="903" />
              <mxPoint x="966" y="903" />
            </Array>
          </mxGeometry>
        </mxCell>
        <mxCell id="HCp1jWOT6lPPvcUnvt3E-111" value="Squirrel" style="swimlane;fontStyle=1;align=center;verticalAlign=top;childLayout=stackLayout;horizontal=1;startSize=29;horizontalStack=0;resizeParent=1;resizeParentMax=0;resizeLast=0;collapsible=1;marginBottom=0;whiteSpace=wrap;html=1;" parent="1" vertex="1">
          <mxGeometry x="880" y="1076" width="160" height="37" as="geometry" />
        </mxCell>
        <mxCell id="HCp1jWOT6lPPvcUnvt3E-112" value="" style="line;strokeWidth=1;fillColor=none;align=left;verticalAlign=middle;spacingTop=-1;spacingLeft=3;spacingRight=3;rotatable=0;labelPosition=right;points=[];portConstraint=eastwest;strokeColor=inherit;" parent="HCp1jWOT6lPPvcUnvt3E-111" vertex="1">
          <mxGeometry y="29" width="160" height="8" as="geometry" />
        </mxCell>
        <mxCell id="HCp1jWOT6lPPvcUnvt3E-116" style="edgeStyle=orthogonalEdgeStyle;rounded=0;orthogonalLoop=1;jettySize=auto;html=1;endArrow=block;endFill=0;" parent="1" source="HCp1jWOT6lPPvcUnvt3E-113" target="HCp1jWOT6lPPvcUnvt3E-64" edge="1">
          <mxGeometry relative="1" as="geometry">
            <Array as="points">
              <mxPoint x="1130" y="810" />
              <mxPoint x="1050" y="810" />
            </Array>
          </mxGeometry>
        </mxCell>
        <mxCell id="HCp1jWOT6lPPvcUnvt3E-113" value="Monkey" style="swimlane;fontStyle=1;align=center;verticalAlign=top;childLayout=stackLayout;horizontal=1;startSize=29;horizontalStack=0;resizeParent=1;resizeParentMax=0;resizeLast=0;collapsible=1;marginBottom=0;whiteSpace=wrap;html=1;" parent="1" vertex="1">
          <mxGeometry x="1091" y="1101" width="160" height="37" as="geometry" />
        </mxCell>
        <mxCell id="HCp1jWOT6lPPvcUnvt3E-114" value="" style="line;strokeWidth=1;fillColor=none;align=left;verticalAlign=middle;spacingTop=-1;spacingLeft=3;spacingRight=3;rotatable=0;labelPosition=right;points=[];portConstraint=eastwest;strokeColor=inherit;" parent="HCp1jWOT6lPPvcUnvt3E-113" vertex="1">
          <mxGeometry y="29" width="160" height="8" as="geometry" />
        </mxCell>
        <mxCell id="r0xivs-joTKTYX9kbpUL-137" style="edgeStyle=orthogonalEdgeStyle;rounded=0;orthogonalLoop=1;jettySize=auto;html=1;endArrow=open;endFill=0;" parent="1" source="HCp1jWOT6lPPvcUnvt3E-117" target="HCp1jWOT6lPPvcUnvt3E-18" edge="1">
          <mxGeometry relative="1" as="geometry">
            <Array as="points">
              <mxPoint x="2060" y="180" />
              <mxPoint x="2110" y="180" />
            </Array>
          </mxGeometry>
        </mxCell>
        <mxCell id="XjsQFoxlmk537Zc9GoqI-39" value="1..1&lt;div&gt;controleur&lt;/div&gt;" style="edgeLabel;html=1;align=center;verticalAlign=middle;resizable=0;points=[];" parent="r0xivs-joTKTYX9kbpUL-137" vertex="1" connectable="0">
          <mxGeometry x="0.6374" relative="1" as="geometry">
            <mxPoint as="offset" />
          </mxGeometry>
        </mxCell>
        <mxCell id="HCp1jWOT6lPPvcUnvt3E-117" value="Main" style="swimlane;fontStyle=1;align=center;verticalAlign=top;childLayout=stackLayout;horizontal=1;startSize=26;horizontalStack=0;resizeParent=1;resizeParentMax=0;resizeLast=0;collapsible=1;marginBottom=0;whiteSpace=wrap;html=1;" parent="1" vertex="1">
          <mxGeometry x="1980" y="66" width="160" height="60" as="geometry" />
        </mxCell>
        <mxCell id="HCp1jWOT6lPPvcUnvt3E-119" value="" style="line;strokeWidth=1;fillColor=none;align=left;verticalAlign=middle;spacingTop=-1;spacingLeft=3;spacingRight=3;rotatable=0;labelPosition=right;points=[];portConstraint=eastwest;strokeColor=inherit;" parent="HCp1jWOT6lPPvcUnvt3E-117" vertex="1">
          <mxGeometry y="26" width="160" height="8" as="geometry" />
        </mxCell>
        <mxCell id="HCp1jWOT6lPPvcUnvt3E-120" value="+ main() : void" style="text;strokeColor=none;fillColor=none;align=left;verticalAlign=top;spacingLeft=4;spacingRight=4;overflow=hidden;rotatable=0;points=[[0,0.5],[1,0.5]];portConstraint=eastwest;whiteSpace=wrap;html=1;" parent="HCp1jWOT6lPPvcUnvt3E-117" vertex="1">
          <mxGeometry y="34" width="160" height="26" as="geometry" />
        </mxCell>
        <mxCell id="HCp1jWOT6lPPvcUnvt3E-121" value="Board" style="swimlane;fontStyle=1;align=center;verticalAlign=top;childLayout=stackLayout;horizontal=1;startSize=26;horizontalStack=0;resizeParent=1;resizeParentMax=0;resizeLast=0;collapsible=1;marginBottom=0;whiteSpace=wrap;html=1;" parent="1" vertex="1">
          <mxGeometry x="1400" y="-247" width="540" height="190" as="geometry" />
        </mxCell>
        <mxCell id="HCp1jWOT6lPPvcUnvt3E-122" value="- board: Terrain[][]" style="text;strokeColor=none;fillColor=none;align=left;verticalAlign=top;spacingLeft=4;spacingRight=4;overflow=hidden;rotatable=0;points=[[0,0.5],[1,0.5]];portConstraint=eastwest;whiteSpace=wrap;html=1;" parent="HCp1jWOT6lPPvcUnvt3E-121" vertex="1">
          <mxGeometry y="26" width="540" height="26" as="geometry" />
        </mxCell>
        <mxCell id="pYf7q3VQLDyf8TSh6IOd-9" value="- height : int" style="text;strokeColor=none;fillColor=none;align=left;verticalAlign=top;spacingLeft=4;spacingRight=4;overflow=hidden;rotatable=0;points=[[0,0.5],[1,0.5]];portConstraint=eastwest;whiteSpace=wrap;html=1;" parent="HCp1jWOT6lPPvcUnvt3E-121" vertex="1">
          <mxGeometry y="52" width="540" height="26" as="geometry" />
        </mxCell>
        <mxCell id="pYf7q3VQLDyf8TSh6IOd-10" value="- wigth: int" style="text;strokeColor=none;fillColor=none;align=left;verticalAlign=top;spacingLeft=4;spacingRight=4;overflow=hidden;rotatable=0;points=[[0,0.5],[1,0.5]];portConstraint=eastwest;whiteSpace=wrap;html=1;" parent="HCp1jWOT6lPPvcUnvt3E-121" vertex="1">
          <mxGeometry y="78" width="540" height="26" as="geometry" />
        </mxCell>
        <mxCell id="pYf7q3VQLDyf8TSh6IOd-11" value="- theme: char" style="text;strokeColor=none;fillColor=none;align=left;verticalAlign=top;spacingLeft=4;spacingRight=4;overflow=hidden;rotatable=0;points=[[0,0.5],[1,0.5]];portConstraint=eastwest;whiteSpace=wrap;html=1;" parent="HCp1jWOT6lPPvcUnvt3E-121" vertex="1">
          <mxGeometry y="104" width="540" height="26" as="geometry" />
        </mxCell>
        <mxCell id="pYf7q3VQLDyf8TSh6IOd-13" value="- player: PlayerCharacter" style="text;strokeColor=none;fillColor=none;align=left;verticalAlign=top;spacingLeft=4;spacingRight=4;overflow=hidden;rotatable=0;points=[[0,0.5],[1,0.5]];portConstraint=eastwest;whiteSpace=wrap;html=1;" parent="HCp1jWOT6lPPvcUnvt3E-121" vertex="1">
          <mxGeometry y="130" width="540" height="26" as="geometry" />
        </mxCell>
        <mxCell id="XjsQFoxlmk537Zc9GoqI-128" value="- logs : List&amp;lt;String&amp;gt;&amp;nbsp;" style="text;strokeColor=none;fillColor=none;align=left;verticalAlign=top;spacingLeft=4;spacingRight=4;overflow=hidden;rotatable=0;points=[[0,0.5],[1,0.5]];portConstraint=eastwest;whiteSpace=wrap;html=1;" parent="HCp1jWOT6lPPvcUnvt3E-121" vertex="1">
          <mxGeometry y="156" width="540" height="26" as="geometry" />
        </mxCell>
        <mxCell id="HCp1jWOT6lPPvcUnvt3E-123" value="" style="line;strokeWidth=1;fillColor=none;align=left;verticalAlign=middle;spacingTop=-1;spacingLeft=3;spacingRight=3;rotatable=0;labelPosition=right;points=[];portConstraint=eastwest;strokeColor=inherit;" parent="HCp1jWOT6lPPvcUnvt3E-121" vertex="1">
          <mxGeometry y="182" width="540" height="8" as="geometry" />
        </mxCell>
        <mxCell id="pYf7q3VQLDyf8TSh6IOd-27" style="edgeStyle=orthogonalEdgeStyle;rounded=0;orthogonalLoop=1;jettySize=auto;html=1;" parent="1" source="r0xivs-joTKTYX9kbpUL-1" target="HCp1jWOT6lPPvcUnvt3E-64" edge="1">
          <mxGeometry relative="1" as="geometry" />
        </mxCell>
        <mxCell id="pYf7q3VQLDyf8TSh6IOd-28" value="1..1&lt;div&gt;npc&lt;/div&gt;" style="edgeLabel;html=1;align=center;verticalAlign=middle;resizable=0;points=[];" parent="pYf7q3VQLDyf8TSh6IOd-27" vertex="1" connectable="0">
          <mxGeometry x="0.6653" y="-2" relative="1" as="geometry">
            <mxPoint as="offset" />
          </mxGeometry>
        </mxCell>
        <mxCell id="r0xivs-joTKTYX9kbpUL-1" value="&amp;lt;&amp;lt;Interface&amp;gt;&amp;gt;&lt;div&gt;State&lt;/div&gt;" style="swimlane;fontStyle=1;align=center;verticalAlign=top;childLayout=stackLayout;horizontal=1;startSize=40;horizontalStack=0;resizeParent=1;resizeParentMax=0;resizeLast=0;collapsible=1;marginBottom=0;whiteSpace=wrap;html=1;" parent="1" vertex="1">
          <mxGeometry x="1440" y="690" width="227" height="48" as="geometry" />
        </mxCell>
        <mxCell id="r0xivs-joTKTYX9kbpUL-3" value="" style="line;strokeWidth=1;fillColor=none;align=left;verticalAlign=middle;spacingTop=-1;spacingLeft=3;spacingRight=3;rotatable=0;labelPosition=right;points=[];portConstraint=eastwest;strokeColor=inherit;" parent="r0xivs-joTKTYX9kbpUL-1" vertex="1">
          <mxGeometry y="40" width="227" height="8" as="geometry" />
        </mxCell>
        <mxCell id="r0xivs-joTKTYX9kbpUL-64" style="edgeStyle=orthogonalEdgeStyle;rounded=0;orthogonalLoop=1;jettySize=auto;html=1;dashed=1;endArrow=block;endFill=0;" parent="1" source="r0xivs-joTKTYX9kbpUL-58" target="r0xivs-joTKTYX9kbpUL-1" edge="1">
          <mxGeometry relative="1" as="geometry">
            <Array as="points">
              <mxPoint x="1393" y="811" />
              <mxPoint x="1510" y="811" />
            </Array>
          </mxGeometry>
        </mxCell>
        <mxCell id="r0xivs-joTKTYX9kbpUL-58" value="&lt;div&gt;HungryState&lt;/div&gt;" style="swimlane;fontStyle=1;align=center;verticalAlign=top;childLayout=stackLayout;horizontal=1;startSize=30;horizontalStack=0;resizeParent=1;resizeParentMax=0;resizeLast=0;collapsible=1;marginBottom=0;whiteSpace=wrap;html=1;" parent="1" vertex="1">
          <mxGeometry x="1310" y="848" width="240" height="38" as="geometry" />
        </mxCell>
        <mxCell id="r0xivs-joTKTYX9kbpUL-59" value="" style="line;strokeWidth=1;fillColor=none;align=left;verticalAlign=middle;spacingTop=-1;spacingLeft=3;spacingRight=3;rotatable=0;labelPosition=right;points=[];portConstraint=eastwest;strokeColor=inherit;" parent="r0xivs-joTKTYX9kbpUL-58" vertex="1">
          <mxGeometry y="30" width="240" height="8" as="geometry" />
        </mxCell>
        <mxCell id="r0xivs-joTKTYX9kbpUL-65" style="edgeStyle=orthogonalEdgeStyle;rounded=0;orthogonalLoop=1;jettySize=auto;html=1;dashed=1;endArrow=block;endFill=0;" parent="1" source="r0xivs-joTKTYX9kbpUL-61" target="r0xivs-joTKTYX9kbpUL-1" edge="1">
          <mxGeometry relative="1" as="geometry">
            <Array as="points">
              <mxPoint x="1683" y="811" />
              <mxPoint x="1540" y="811" />
            </Array>
          </mxGeometry>
        </mxCell>
        <mxCell id="r0xivs-joTKTYX9kbpUL-61" value="&lt;div&gt;NotHungryState&lt;/div&gt;" style="swimlane;fontStyle=1;align=center;verticalAlign=top;childLayout=stackLayout;horizontal=1;startSize=30;horizontalStack=0;resizeParent=1;resizeParentMax=0;resizeLast=0;collapsible=1;marginBottom=0;whiteSpace=wrap;html=1;" parent="1" vertex="1">
          <mxGeometry x="1600" y="848" width="258" height="38" as="geometry" />
        </mxCell>
        <mxCell id="r0xivs-joTKTYX9kbpUL-62" value="" style="line;strokeWidth=1;fillColor=none;align=left;verticalAlign=middle;spacingTop=-1;spacingLeft=3;spacingRight=3;rotatable=0;labelPosition=right;points=[];portConstraint=eastwest;strokeColor=inherit;" parent="r0xivs-joTKTYX9kbpUL-61" vertex="1">
          <mxGeometry y="30" width="258" height="8" as="geometry" />
        </mxCell>
        <mxCell id="r0xivs-joTKTYX9kbpUL-85" style="edgeStyle=orthogonalEdgeStyle;rounded=0;orthogonalLoop=1;jettySize=auto;html=1;endArrow=block;endFill=0;" parent="1" source="r0xivs-joTKTYX9kbpUL-73" target="HCp1jWOT6lPPvcUnvt3E-87" edge="1">
          <mxGeometry relative="1" as="geometry">
            <Array as="points">
              <mxPoint x="-760" y="829" />
              <mxPoint x="-660" y="829" />
            </Array>
          </mxGeometry>
        </mxCell>
        <mxCell id="r0xivs-joTKTYX9kbpUL-73" value="Tree" style="swimlane;fontStyle=1;align=center;verticalAlign=top;childLayout=stackLayout;horizontal=1;startSize=29;horizontalStack=0;resizeParent=1;resizeParentMax=0;resizeLast=0;collapsible=1;marginBottom=0;whiteSpace=wrap;html=1;" parent="1" vertex="1">
          <mxGeometry x="-840" y="860" width="160" height="37" as="geometry" />
        </mxCell>
        <mxCell id="r0xivs-joTKTYX9kbpUL-74" value="" style="line;strokeWidth=1;fillColor=none;align=left;verticalAlign=middle;spacingTop=-1;spacingLeft=3;spacingRight=3;rotatable=0;labelPosition=right;points=[];portConstraint=eastwest;strokeColor=inherit;" parent="r0xivs-joTKTYX9kbpUL-73" vertex="1">
          <mxGeometry y="29" width="160" height="8" as="geometry" />
        </mxCell>
        <mxCell id="r0xivs-joTKTYX9kbpUL-87" style="edgeStyle=orthogonalEdgeStyle;rounded=0;orthogonalLoop=1;jettySize=auto;html=1;endArrow=block;endFill=0;" parent="1" source="r0xivs-joTKTYX9kbpUL-76" target="HCp1jWOT6lPPvcUnvt3E-89" edge="1">
          <mxGeometry relative="1" as="geometry" />
        </mxCell>
        <mxCell id="r0xivs-joTKTYX9kbpUL-76" value="Bush" style="swimlane;fontStyle=1;align=center;verticalAlign=top;childLayout=stackLayout;horizontal=1;startSize=29;horizontalStack=0;resizeParent=1;resizeParentMax=0;resizeLast=0;collapsible=1;marginBottom=0;whiteSpace=wrap;html=1;" parent="1" vertex="1">
          <mxGeometry x="-480" y="860" width="160" height="37" as="geometry" />
        </mxCell>
        <mxCell id="r0xivs-joTKTYX9kbpUL-77" value="" style="line;strokeWidth=1;fillColor=none;align=left;verticalAlign=middle;spacingTop=-1;spacingLeft=3;spacingRight=3;rotatable=0;labelPosition=right;points=[];portConstraint=eastwest;strokeColor=inherit;" parent="r0xivs-joTKTYX9kbpUL-76" vertex="1">
          <mxGeometry y="29" width="160" height="8" as="geometry" />
        </mxCell>
        <mxCell id="r0xivs-joTKTYX9kbpUL-79" value="PalmTree" style="swimlane;fontStyle=1;align=center;verticalAlign=top;childLayout=stackLayout;horizontal=1;startSize=29;horizontalStack=0;resizeParent=1;resizeParentMax=0;resizeLast=0;collapsible=1;marginBottom=0;whiteSpace=wrap;html=1;" parent="1" vertex="1">
          <mxGeometry x="-660" y="860" width="160" height="37" as="geometry" />
        </mxCell>
        <mxCell id="r0xivs-joTKTYX9kbpUL-80" value="" style="line;strokeWidth=1;fillColor=none;align=left;verticalAlign=middle;spacingTop=-1;spacingLeft=3;spacingRight=3;rotatable=0;labelPosition=right;points=[];portConstraint=eastwest;strokeColor=inherit;" parent="r0xivs-joTKTYX9kbpUL-79" vertex="1">
          <mxGeometry y="29" width="160" height="8" as="geometry" />
        </mxCell>
        <mxCell id="r0xivs-joTKTYX9kbpUL-88" style="edgeStyle=orthogonalEdgeStyle;rounded=0;orthogonalLoop=1;jettySize=auto;html=1;endArrow=block;endFill=0;" parent="1" source="r0xivs-joTKTYX9kbpUL-82" target="HCp1jWOT6lPPvcUnvt3E-89" edge="1">
          <mxGeometry relative="1" as="geometry">
            <Array as="points">
              <mxPoint x="-220" y="827" />
              <mxPoint x="-390" y="827" />
            </Array>
          </mxGeometry>
        </mxCell>
        <mxCell id="r0xivs-joTKTYX9kbpUL-82" value="Rock" style="swimlane;fontStyle=1;align=center;verticalAlign=top;childLayout=stackLayout;horizontal=1;startSize=29;horizontalStack=0;resizeParent=1;resizeParentMax=0;resizeLast=0;collapsible=1;marginBottom=0;whiteSpace=wrap;html=1;" parent="1" vertex="1">
          <mxGeometry x="-300" y="860" width="160" height="37" as="geometry" />
        </mxCell>
        <mxCell id="r0xivs-joTKTYX9kbpUL-83" value="" style="line;strokeWidth=1;fillColor=none;align=left;verticalAlign=middle;spacingTop=-1;spacingLeft=3;spacingRight=3;rotatable=0;labelPosition=right;points=[];portConstraint=eastwest;strokeColor=inherit;" parent="r0xivs-joTKTYX9kbpUL-82" vertex="1">
          <mxGeometry y="29" width="160" height="8" as="geometry" />
        </mxCell>
        <mxCell id="r0xivs-joTKTYX9kbpUL-92" style="edgeStyle=orthogonalEdgeStyle;rounded=0;orthogonalLoop=1;jettySize=auto;html=1;endArrow=block;endFill=0;" parent="1" source="r0xivs-joTKTYX9kbpUL-89" target="HCp1jWOT6lPPvcUnvt3E-42" edge="1">
          <mxGeometry relative="1" as="geometry">
            <Array as="points">
              <mxPoint x="-840" y="600" />
              <mxPoint x="-397" y="600" />
            </Array>
          </mxGeometry>
        </mxCell>
        <mxCell id="r0xivs-joTKTYX9kbpUL-89" value="Empty" style="swimlane;fontStyle=1;align=center;verticalAlign=top;childLayout=stackLayout;horizontal=1;startSize=29;horizontalStack=0;resizeParent=1;resizeParentMax=0;resizeLast=0;collapsible=1;marginBottom=0;whiteSpace=wrap;html=1;" parent="1" vertex="1">
          <mxGeometry x="-941" y="737" width="160" height="37" as="geometry" />
        </mxCell>
        <mxCell id="r0xivs-joTKTYX9kbpUL-90" value="" style="line;strokeWidth=1;fillColor=none;align=left;verticalAlign=middle;spacingTop=-1;spacingLeft=3;spacingRight=3;rotatable=0;labelPosition=right;points=[];portConstraint=eastwest;strokeColor=inherit;" parent="r0xivs-joTKTYX9kbpUL-89" vertex="1">
          <mxGeometry y="29" width="160" height="8" as="geometry" />
        </mxCell>
        <mxCell id="r0xivs-joTKTYX9kbpUL-118" style="edgeStyle=orthogonalEdgeStyle;rounded=0;orthogonalLoop=1;jettySize=auto;html=1;endArrow=block;endFill=0;" parent="1" source="r0xivs-joTKTYX9kbpUL-109" target="HCp1jWOT6lPPvcUnvt3E-71" edge="1">
          <mxGeometry relative="1" as="geometry">
            <Array as="points">
              <mxPoint x="946" y="1482" />
              <mxPoint x="946" y="1482" />
            </Array>
          </mxGeometry>
        </mxCell>
        <mxCell id="r0xivs-joTKTYX9kbpUL-109" value="Hit" style="swimlane;fontStyle=1;align=center;verticalAlign=top;childLayout=stackLayout;horizontal=1;startSize=30;horizontalStack=0;resizeParent=1;resizeParentMax=0;resizeLast=0;collapsible=1;marginBottom=0;whiteSpace=wrap;html=1;" parent="1" vertex="1">
          <mxGeometry x="837" y="1554" width="180" height="64" as="geometry" />
        </mxCell>
        <mxCell id="r0xivs-joTKTYX9kbpUL-110" value="- displayName : String" style="text;strokeColor=none;fillColor=none;align=left;verticalAlign=top;spacingLeft=4;spacingRight=4;overflow=hidden;rotatable=0;points=[[0,0.5],[1,0.5]];portConstraint=eastwest;whiteSpace=wrap;html=1;" parent="r0xivs-joTKTYX9kbpUL-109" vertex="1">
          <mxGeometry y="30" width="180" height="26" as="geometry" />
        </mxCell>
        <mxCell id="r0xivs-joTKTYX9kbpUL-111" value="" style="line;strokeWidth=1;fillColor=none;align=left;verticalAlign=middle;spacingTop=-1;spacingLeft=3;spacingRight=3;rotatable=0;labelPosition=right;points=[];portConstraint=eastwest;strokeColor=inherit;" parent="r0xivs-joTKTYX9kbpUL-109" vertex="1">
          <mxGeometry y="56" width="180" height="8" as="geometry" />
        </mxCell>
        <mxCell id="r0xivs-joTKTYX9kbpUL-119" style="edgeStyle=orthogonalEdgeStyle;rounded=0;orthogonalLoop=1;jettySize=auto;html=1;endArrow=block;endFill=0;" parent="1" source="r0xivs-joTKTYX9kbpUL-112" target="HCp1jWOT6lPPvcUnvt3E-71" edge="1">
          <mxGeometry relative="1" as="geometry">
            <Array as="points">
              <mxPoint x="1132" y="1496" />
              <mxPoint x="1132" y="1496" />
            </Array>
          </mxGeometry>
        </mxCell>
        <mxCell id="r0xivs-joTKTYX9kbpUL-112" value="Grab" style="swimlane;fontStyle=1;align=center;verticalAlign=top;childLayout=stackLayout;horizontal=1;startSize=30;horizontalStack=0;resizeParent=1;resizeParentMax=0;resizeLast=0;collapsible=1;marginBottom=0;whiteSpace=wrap;html=1;" parent="1" vertex="1">
          <mxGeometry x="1050" y="1554" width="180" height="64" as="geometry" />
        </mxCell>
        <mxCell id="r0xivs-joTKTYX9kbpUL-113" value="- displayName : String" style="text;strokeColor=none;fillColor=none;align=left;verticalAlign=top;spacingLeft=4;spacingRight=4;overflow=hidden;rotatable=0;points=[[0,0.5],[1,0.5]];portConstraint=eastwest;whiteSpace=wrap;html=1;" parent="r0xivs-joTKTYX9kbpUL-112" vertex="1">
          <mxGeometry y="30" width="180" height="26" as="geometry" />
        </mxCell>
        <mxCell id="r0xivs-joTKTYX9kbpUL-114" value="" style="line;strokeWidth=1;fillColor=none;align=left;verticalAlign=middle;spacingTop=-1;spacingLeft=3;spacingRight=3;rotatable=0;labelPosition=right;points=[];portConstraint=eastwest;strokeColor=inherit;" parent="r0xivs-joTKTYX9kbpUL-112" vertex="1">
          <mxGeometry y="56" width="180" height="8" as="geometry" />
        </mxCell>
        <mxCell id="XjsQFoxlmk537Zc9GoqI-151" style="edgeStyle=orthogonalEdgeStyle;rounded=0;orthogonalLoop=1;jettySize=auto;html=1;" parent="1" source="DrACzwTK3TKXdcZGICnd-5" target="XjsQFoxlmk537Zc9GoqI-147" edge="1">
          <mxGeometry relative="1" as="geometry" />
        </mxCell>
        <mxCell id="XjsQFoxlmk537Zc9GoqI-152" value="0..n&lt;div&gt;items&lt;/div&gt;" style="edgeLabel;html=1;align=center;verticalAlign=middle;resizable=0;points=[];" parent="XjsQFoxlmk537Zc9GoqI-151" vertex="1" connectable="0">
          <mxGeometry x="0.3634" y="1" relative="1" as="geometry">
            <mxPoint as="offset" />
          </mxGeometry>
        </mxCell>
        <mxCell id="DrACzwTK3TKXdcZGICnd-5" value="Inventory" style="swimlane;fontStyle=1;align=center;verticalAlign=top;childLayout=stackLayout;horizontal=1;startSize=26;horizontalStack=0;resizeParent=1;resizeParentMax=0;resizeLast=0;collapsible=1;marginBottom=0;whiteSpace=wrap;html=1;" parent="1" vertex="1">
          <mxGeometry x="2150" y="651" width="281" height="60" as="geometry" />
        </mxCell>
        <mxCell id="DrACzwTK3TKXdcZGICnd-6" value="- equippedItemId : int" style="text;strokeColor=none;fillColor=none;align=left;verticalAlign=top;spacingLeft=4;spacingRight=4;overflow=hidden;rotatable=0;points=[[0,0.5],[1,0.5]];portConstraint=eastwest;whiteSpace=wrap;html=1;" parent="DrACzwTK3TKXdcZGICnd-5" vertex="1">
          <mxGeometry y="26" width="281" height="26" as="geometry" />
        </mxCell>
        <mxCell id="DrACzwTK3TKXdcZGICnd-7" value="" style="line;strokeWidth=1;fillColor=none;align=left;verticalAlign=middle;spacingTop=-1;spacingLeft=3;spacingRight=3;rotatable=0;labelPosition=right;points=[];portConstraint=eastwest;strokeColor=inherit;" parent="DrACzwTK3TKXdcZGICnd-5" vertex="1">
          <mxGeometry y="52" width="281" height="8" as="geometry" />
        </mxCell>
        <mxCell id="l9vW0RXhgVoUWkP2VZ4Z-9" value="" style="edgeStyle=orthogonalEdgeStyle;rounded=0;orthogonalLoop=1;jettySize=auto;html=1;endArrow=block;endFill=0;" parent="1" source="r0xivs-joTKTYX9kbpUL-79" edge="1">
          <mxGeometry relative="1" as="geometry">
            <Array as="points">
              <mxPoint x="-580" y="838" />
              <mxPoint x="-610" y="838" />
            </Array>
            <mxPoint x="-580" y="860" as="sourcePoint" />
            <mxPoint x="-610" y="810.5" as="targetPoint" />
          </mxGeometry>
        </mxCell>
        <mxCell id="XjsQFoxlmk537Zc9GoqI-40" value="&lt;div&gt;&amp;lt;&amp;lt;Abstract&amp;gt;&amp;gt;&lt;/div&gt;BoardFactory" style="swimlane;fontStyle=1;align=center;verticalAlign=top;childLayout=stackLayout;horizontal=1;startSize=42;horizontalStack=0;resizeParent=1;resizeParentMax=0;resizeLast=0;collapsible=1;marginBottom=0;whiteSpace=wrap;html=1;" parent="1" vertex="1">
          <mxGeometry x="1626" y="-843" width="264" height="50" as="geometry" />
        </mxCell>
        <mxCell id="XjsQFoxlmk537Zc9GoqI-46" value="" style="line;strokeWidth=1;fillColor=none;align=left;verticalAlign=middle;spacingTop=-1;spacingLeft=3;spacingRight=3;rotatable=0;labelPosition=right;points=[];portConstraint=eastwest;strokeColor=inherit;" parent="XjsQFoxlmk537Zc9GoqI-40" vertex="1">
          <mxGeometry y="42" width="264" height="8" as="geometry" />
        </mxCell>
        <mxCell id="XjsQFoxlmk537Zc9GoqI-57" style="edgeStyle=orthogonalEdgeStyle;rounded=0;orthogonalLoop=1;jettySize=auto;html=1;endArrow=block;endFill=0;" parent="1" source="XjsQFoxlmk537Zc9GoqI-54" target="XjsQFoxlmk537Zc9GoqI-40" edge="1">
          <mxGeometry relative="1" as="geometry">
            <Array as="points">
              <mxPoint x="1758" y="-657" />
            </Array>
          </mxGeometry>
        </mxCell>
        <mxCell id="XjsQFoxlmk537Zc9GoqI-62" style="edgeStyle=orthogonalEdgeStyle;rounded=0;orthogonalLoop=1;jettySize=auto;html=1;endArrow=open;endFill=0;" parent="1" source="XjsQFoxlmk537Zc9GoqI-54" target="HCp1jWOT6lPPvcUnvt3E-1" edge="1">
          <mxGeometry relative="1" as="geometry">
            <Array as="points">
              <mxPoint x="1282" y="-256" />
              <mxPoint x="1282" y="267" />
            </Array>
          </mxGeometry>
        </mxCell>
        <mxCell id="XjsQFoxlmk537Zc9GoqI-63" value="1..1&lt;div&gt;clock&lt;/div&gt;" style="edgeLabel;html=1;align=center;verticalAlign=middle;resizable=0;points=[];" parent="XjsQFoxlmk537Zc9GoqI-62" vertex="1" connectable="0">
          <mxGeometry x="0.8784" y="1" relative="1" as="geometry">
            <mxPoint as="offset" />
          </mxGeometry>
        </mxCell>
        <mxCell id="XjsQFoxlmk537Zc9GoqI-82" style="edgeStyle=orthogonalEdgeStyle;rounded=0;orthogonalLoop=1;jettySize=auto;html=1;startArrow=block;startFill=0;endArrow=none;endFill=0;" parent="1" source="XjsQFoxlmk537Zc9GoqI-54" target="XjsQFoxlmk537Zc9GoqI-74" edge="1">
          <mxGeometry relative="1" as="geometry" />
        </mxCell>
        <mxCell id="XjsQFoxlmk537Zc9GoqI-88" style="edgeStyle=orthogonalEdgeStyle;rounded=0;orthogonalLoop=1;jettySize=auto;html=1;startArrow=block;startFill=0;endArrow=none;endFill=0;" parent="1" source="XjsQFoxlmk537Zc9GoqI-54" target="XjsQFoxlmk537Zc9GoqI-83" edge="1">
          <mxGeometry relative="1" as="geometry" />
        </mxCell>
        <mxCell id="XjsQFoxlmk537Zc9GoqI-54" value="&lt;div&gt;&amp;lt;&amp;lt;Abstract&amp;gt;&amp;gt;&lt;/div&gt;BoardFactoryGenerator" style="swimlane;fontStyle=1;align=center;verticalAlign=top;childLayout=stackLayout;horizontal=1;startSize=42;horizontalStack=0;resizeParent=1;resizeParentMax=0;resizeLast=0;collapsible=1;marginBottom=0;whiteSpace=wrap;html=1;" parent="1" vertex="1">
          <mxGeometry x="1236" y="-683" width="346" height="102" as="geometry" />
        </mxCell>
        <mxCell id="XjsQFoxlmk537Zc9GoqI-58" value="height : int" style="text;strokeColor=none;fillColor=none;align=left;verticalAlign=top;spacingLeft=4;spacingRight=4;overflow=hidden;rotatable=0;points=[[0,0.5],[1,0.5]];portConstraint=eastwest;whiteSpace=wrap;html=1;" parent="XjsQFoxlmk537Zc9GoqI-54" vertex="1">
          <mxGeometry y="42" width="346" height="26" as="geometry" />
        </mxCell>
        <mxCell id="XjsQFoxlmk537Zc9GoqI-59" value="width : int" style="text;strokeColor=none;fillColor=none;align=left;verticalAlign=top;spacingLeft=4;spacingRight=4;overflow=hidden;rotatable=0;points=[[0,0.5],[1,0.5]];portConstraint=eastwest;whiteSpace=wrap;html=1;" parent="XjsQFoxlmk537Zc9GoqI-54" vertex="1">
          <mxGeometry y="68" width="346" height="26" as="geometry" />
        </mxCell>
        <mxCell id="XjsQFoxlmk537Zc9GoqI-55" value="" style="line;strokeWidth=1;fillColor=none;align=left;verticalAlign=middle;spacingTop=-1;spacingLeft=3;spacingRight=3;rotatable=0;labelPosition=right;points=[];portConstraint=eastwest;strokeColor=inherit;" parent="XjsQFoxlmk537Zc9GoqI-54" vertex="1">
          <mxGeometry y="94" width="346" height="8" as="geometry" />
        </mxCell>
        <mxCell id="XjsQFoxlmk537Zc9GoqI-74" value="&lt;div&gt;&lt;span style=&quot;background-color: initial;&quot;&gt;BoardFactoryGeneratorForest&lt;/span&gt;&lt;br&gt;&lt;/div&gt;" style="swimlane;fontStyle=1;align=center;verticalAlign=top;childLayout=stackLayout;horizontal=1;startSize=30;horizontalStack=0;resizeParent=1;resizeParentMax=0;resizeLast=0;collapsible=1;marginBottom=0;whiteSpace=wrap;html=1;" parent="1" vertex="1">
          <mxGeometry x="797" y="-426" width="391" height="64" as="geometry" />
        </mxCell>
        <mxCell id="XjsQFoxlmk537Zc9GoqI-76" value="board : Terrain[][]" style="text;strokeColor=none;fillColor=none;align=left;verticalAlign=top;spacingLeft=4;spacingRight=4;overflow=hidden;rotatable=0;points=[[0,0.5],[1,0.5]];portConstraint=eastwest;whiteSpace=wrap;html=1;" parent="XjsQFoxlmk537Zc9GoqI-74" vertex="1">
          <mxGeometry y="30" width="391" height="26" as="geometry" />
        </mxCell>
        <mxCell id="XjsQFoxlmk537Zc9GoqI-77" value="" style="line;strokeWidth=1;fillColor=none;align=left;verticalAlign=middle;spacingTop=-1;spacingLeft=3;spacingRight=3;rotatable=0;labelPosition=right;points=[];portConstraint=eastwest;strokeColor=inherit;" parent="XjsQFoxlmk537Zc9GoqI-74" vertex="1">
          <mxGeometry y="56" width="391" height="8" as="geometry" />
        </mxCell>
        <mxCell id="XjsQFoxlmk537Zc9GoqI-83" value="&lt;div&gt;&lt;span style=&quot;background-color: initial;&quot;&gt;BoardFactoryGeneratorJungle&lt;/span&gt;&lt;br&gt;&lt;/div&gt;" style="swimlane;fontStyle=1;align=center;verticalAlign=top;childLayout=stackLayout;horizontal=1;startSize=30;horizontalStack=0;resizeParent=1;resizeParentMax=0;resizeLast=0;collapsible=1;marginBottom=0;whiteSpace=wrap;html=1;" parent="1" vertex="1">
          <mxGeometry x="1348" y="-405" width="391" height="64" as="geometry" />
        </mxCell>
        <mxCell id="XjsQFoxlmk537Zc9GoqI-84" value="board : Terrain[][]" style="text;strokeColor=none;fillColor=none;align=left;verticalAlign=top;spacingLeft=4;spacingRight=4;overflow=hidden;rotatable=0;points=[[0,0.5],[1,0.5]];portConstraint=eastwest;whiteSpace=wrap;html=1;" parent="XjsQFoxlmk537Zc9GoqI-83" vertex="1">
          <mxGeometry y="30" width="391" height="26" as="geometry" />
        </mxCell>
        <mxCell id="XjsQFoxlmk537Zc9GoqI-85" value="" style="line;strokeWidth=1;fillColor=none;align=left;verticalAlign=middle;spacingTop=-1;spacingLeft=3;spacingRight=3;rotatable=0;labelPosition=right;points=[];portConstraint=eastwest;strokeColor=inherit;" parent="XjsQFoxlmk537Zc9GoqI-83" vertex="1">
          <mxGeometry y="56" width="391" height="8" as="geometry" />
        </mxCell>
        <mxCell id="XjsQFoxlmk537Zc9GoqI-97" style="edgeStyle=orthogonalEdgeStyle;rounded=0;orthogonalLoop=1;jettySize=auto;html=1;endArrow=block;endFill=0;" parent="1" source="XjsQFoxlmk537Zc9GoqI-89" target="XjsQFoxlmk537Zc9GoqI-40" edge="1">
          <mxGeometry relative="1" as="geometry">
            <Array as="points">
              <mxPoint x="2042" y="-714" />
              <mxPoint x="1815" y="-714" />
            </Array>
          </mxGeometry>
        </mxCell>
        <mxCell id="XjsQFoxlmk537Zc9GoqI-89" value="&lt;div&gt;&lt;span style=&quot;background-color: initial;&quot;&gt;BoardFactoryParser&lt;/span&gt;&lt;br&gt;&lt;/div&gt;" style="swimlane;fontStyle=1;align=center;verticalAlign=top;childLayout=stackLayout;horizontal=1;startSize=29;horizontalStack=0;resizeParent=1;resizeParentMax=0;resizeLast=0;collapsible=1;marginBottom=0;whiteSpace=wrap;html=1;" parent="1" vertex="1">
          <mxGeometry x="1869" y="-662" width="346" height="63" as="geometry" />
        </mxCell>
        <mxCell id="XjsQFoxlmk537Zc9GoqI-90" value="mapFile : File" style="text;strokeColor=none;fillColor=none;align=left;verticalAlign=top;spacingLeft=4;spacingRight=4;overflow=hidden;rotatable=0;points=[[0,0.5],[1,0.5]];portConstraint=eastwest;whiteSpace=wrap;html=1;" parent="XjsQFoxlmk537Zc9GoqI-89" vertex="1">
          <mxGeometry y="29" width="346" height="26" as="geometry" />
        </mxCell>
        <mxCell id="XjsQFoxlmk537Zc9GoqI-92" value="" style="line;strokeWidth=1;fillColor=none;align=left;verticalAlign=middle;spacingTop=-1;spacingLeft=3;spacingRight=3;rotatable=0;labelPosition=right;points=[];portConstraint=eastwest;strokeColor=inherit;" parent="XjsQFoxlmk537Zc9GoqI-89" vertex="1">
          <mxGeometry y="55" width="346" height="8" as="geometry" />
        </mxCell>
        <mxCell id="XjsQFoxlmk537Zc9GoqI-98" style="edgeStyle=orthogonalEdgeStyle;rounded=0;orthogonalLoop=1;jettySize=auto;html=1;endArrow=open;endFill=0;" parent="1" source="XjsQFoxlmk537Zc9GoqI-89" target="HCp1jWOT6lPPvcUnvt3E-1" edge="1">
          <mxGeometry relative="1" as="geometry">
            <mxPoint x="1189" y="242" as="targetPoint" />
            <Array as="points">
              <mxPoint x="2042" y="-267" />
              <mxPoint x="1349" y="-267" />
              <mxPoint x="1349" y="260" />
            </Array>
          </mxGeometry>
        </mxCell>
        <mxCell id="XjsQFoxlmk537Zc9GoqI-99" value="1..1&lt;div&gt;clock&lt;/div&gt;" style="edgeLabel;html=1;align=center;verticalAlign=middle;resizable=0;points=[];" parent="XjsQFoxlmk537Zc9GoqI-98" vertex="1" connectable="0">
          <mxGeometry x="0.925" y="2" relative="1" as="geometry">
            <mxPoint as="offset" />
          </mxGeometry>
        </mxCell>
        <mxCell id="XjsQFoxlmk537Zc9GoqI-147" value="&lt;div&gt;&amp;lt;&amp;lt;interface&amp;gt;&amp;gt;&lt;/div&gt;InventoryItem" style="swimlane;fontStyle=1;align=center;verticalAlign=top;childLayout=stackLayout;horizontal=1;startSize=39;horizontalStack=0;resizeParent=1;resizeParentMax=0;resizeLast=0;collapsible=1;marginBottom=0;whiteSpace=wrap;html=1;" parent="1" vertex="1">
          <mxGeometry x="2169" y="1052" width="160" height="73" as="geometry" />
        </mxCell>
        <mxCell id="XjsQFoxlmk537Zc9GoqI-149" value="" style="line;strokeWidth=1;fillColor=none;align=left;verticalAlign=middle;spacingTop=-1;spacingLeft=3;spacingRight=3;rotatable=0;labelPosition=right;points=[];portConstraint=eastwest;strokeColor=inherit;" parent="XjsQFoxlmk537Zc9GoqI-147" vertex="1">
          <mxGeometry y="39" width="160" height="8" as="geometry" />
        </mxCell>
        <mxCell id="XjsQFoxlmk537Zc9GoqI-150" value="+ getDisplayName()" style="text;strokeColor=none;fillColor=none;align=left;verticalAlign=top;spacingLeft=4;spacingRight=4;overflow=hidden;rotatable=0;points=[[0,0.5],[1,0.5]];portConstraint=eastwest;whiteSpace=wrap;html=1;" parent="XjsQFoxlmk537Zc9GoqI-147" vertex="1">
          <mxGeometry y="47" width="160" height="26" as="geometry" />
        </mxCell>
      </root>
    </mxGraphModel>
  </diagram>
</mxfile>
